<?xml version="1.0" encoding="utf-8"?><!-- Uploaded to: SVG Repo, www.svgrepo.com, Generator: SVG Repo Mixer Tools -->
<svg width="800px" height="800px" viewBox="0 0 146 146" xmlns="http://www.w3.org/2000/svg"><title>001-business</title><rect x="0.5" y="0.5" width="145" height="145" fill="none"/><path d="M74.73,93.59a9.2,9.2,0,0,0-9.2,9.2c0,5.08,4.12,10.8,9.2,10.8s9.2-5.72,9.2-10.8A9.2,9.2,0,0,0,74.73,93.59Z" fill="#ffffff"/><path d="M36.73,92a6,6,0,0,0,6-6,3.35,3.35,0,0,0,0-.4h64.85a3.35,3.35,0,0,0,0,.4,6,6,0,0,0,6,6l0.4,0v23.25l-0.4,0a6,6,0,0,0-6,6,3.35,3.35,0,0,0,0,.4H42.71a3.35,3.35,0,0,0,0-.4,6,6,0,0,0-6-6l-0.4,0V92Zm38,20a9.2,9.2,0,1,0-9.2-9.2A9.2,9.2,0,0,0,74.73,112Z" fill="#7bd489"/><path d="M80.13,69.59A53.52,53.52,0,0,1,77,78.39H96a45.74,45.74,0,0,0,3.8-8.8H80.13Z" fill="#a8cbeb"/><path d="M55.13,69.59v8.8H77a53.52,53.52,0,0,0,3.15-8.8h-25Z" fill="#a8cbeb"/><path d="M55.13,69.59h-25a54.17,54.17,0,0,0,3,8.57v0.23h22v-8.8Z" fill="#a8cbeb"/><path d="M30.14,69.59H10.47A46.85,46.85,0,0,0,28.33,93.95V79.19a0.8,0.8,0,0,1,.8-0.8h4V78.16A54.17,54.17,0,0,1,30.14,69.59Z" fill="#a8cbeb"/><path d="M10.47,41.59a46.95,46.95,0,0,0,0,28H30.14a55.11,55.11,0,0,1,0-28H10.47Z" fill="#a8cbeb"/><path d="M30.14,41.59a55.11,55.11,0,0,0,0,28h25v-28h-25Z" fill="#a8cbeb"/><path d="M55.13,41.59v28h25a55.11,55.11,0,0,0,0-28h-25Z" fill="#a8cbeb"/><path d="M99.8,41.59H80.13a55.11,55.11,0,0,1,0,28H99.8A46.95,46.95,0,0,0,99.8,41.59Z" fill="#a8cbeb"/><path d="M54.59,8.8A46.8,46.8,0,0,0,10.47,41.59H30.14A54.89,54.89,0,0,1,53.49,9.5C53.85,9.26,54.22,9,54.59,8.8Z" fill="#a8cbeb"/><path d="M30.14,41.59h25V10L53.49,9.5A54.89,54.89,0,0,0,30.14,41.59Z" fill="#a8cbeb"/><path d="M54.59,8.8c-0.37.22-.74,0.46-1.1,0.7L55.13,10v31.6h25A54.89,54.89,0,0,0,55.68,8.8l-0.54,0h0Z" fill="#a8cbeb"/><path d="M55.68,8.8A54.89,54.89,0,0,1,80.13,41.59H99.8A46.8,46.8,0,0,0,55.68,8.8Z" fill="#a8cbeb"/><path d="M33.18,78.39h87.15a0.8,0.8,0,0,1,.8.8V128a0.8,0.8,0,0,1-.8.8H29.13a0.8,0.8,0,0,1-.8-0.8V79.19a0.8,0.8,0,0,1,.8-0.8h4Zm3.55,36.8a6,6,0,0,1,6,6,3.35,3.35,0,0,1,0,.4h64.85a3.35,3.35,0,0,1,0-.4,6,6,0,0,1,6-6l0.4,0V92l-0.4,0a6,6,0,0,1-6-6,3.35,3.35,0,0,1,0-.4H42.71a3.35,3.35,0,0,1,0,.4,6,6,0,0,1-6,6l-0.4,0v23.25Z" fill="#ffffff"/><rect x="28.33" y="78.39" width="92.8" height="50.4" rx="0.8" ry="0.8" fill="none" stroke="#515f76" stroke-miterlimit="10" stroke-width="2.4"/><circle cx="74.73" cy="102.79" r="9.2" fill="none" stroke="#515f76" stroke-miterlimit="10" stroke-width="2.4"/><line x1="98" y1="95" x2="90" y2="95" fill="none" stroke="#515f76" stroke-linecap="round" stroke-miterlimit="10" stroke-width="2"/><line x1="105" y1="103" x2="90" y2="103" fill="none" stroke="#515f76" stroke-linecap="round" stroke-miterlimit="10" stroke-width="2"/><line x1="98" y1="110" x2="90" y2="110" fill="none" stroke="#515f76" stroke-linecap="round" stroke-miterlimit="10" stroke-width="2"/><line x1="50" y1="95" x2="58" y2="95" fill="none" stroke="#515f76" stroke-linecap="round" stroke-miterlimit="10" stroke-width="2"/><line x1="44" y1="102" x2="58" y2="102" fill="none" stroke="#515f76" stroke-linecap="round" stroke-miterlimit="10" stroke-width="2"/><line x1="50" y1="109" x2="58" y2="109" fill="none" stroke="#515f76" stroke-linecap="round" stroke-miterlimit="10" stroke-width="2"/><line x1="127.67" y1="68.94" x2="127.67" y2="74.24" fill="none" stroke="#515f76" stroke-linecap="round" stroke-miterlimit="10" stroke-width="2.4"/><line x1="130.47" y1="71.59" x2="124.87" y2="71.59" fill="none" stroke="#515f76" stroke-linecap="round" stroke-miterlimit="10" stroke-width="2.4"/><line x1="17.4" y1="2.65" x2="20.6" y2="5.85" fill="none" stroke="#7bd489" stroke-linecap="round" stroke-miterlimit="10" stroke-width="1.6"/><line x1="20.6" y1="2.65" x2="17.4" y2="5.85" fill="none" stroke="#7bd489" stroke-linecap="round" stroke-miterlimit="10" stroke-width="1.6"/><circle cx="33.33" cy="5.05" r="2" fill="none" stroke="#b8b9ba" stroke-linecap="round" stroke-miterlimit="10" stroke-width="1.6"/><circle cx="12.73" cy="17.99" r="1.6" fill="#b8b9ba"/><circle cx="133.67" cy="83.31" r="1.6" fill="#b8b9ba"/><path d="M130.42,137.84l2.33-1.22a0.08,0.08,0,0,1,.12.08l-0.44,2.59,2,1.95-2.76.4-1.24,2.5-1.24-2.5-2.6-.38a0.08,0.08,0,0,1,0-.14l1.88-1.84-0.47-2.75Z" fill="#b8b9ba"/><circle cx="136.07" cy="124.12" r="2" fill="none" stroke="#b8b9ba" stroke-linecap="round" stroke-miterlimit="10" stroke-width="1.6"/><circle cx="112.33" cy="138.29" r="1.6" fill="#b8b9ba"/><path d="M11.5,62.39c0-5.26,9.5-43.42,41.77-46.8,18.54-1.94,37.12,8.38,46.53,26C93.93,21.7,78.88,8,57.1,8A48,48,0,0,0,13.47,76a48.09,48.09,0,0,1-1.66-8.19S11.5,65.08,11.5,62.39Z" fill="#c6dbee"/><polyline points="99.93 41.59 99.8 41.59 10.47 41.59 10.33 41.59" fill="none" stroke="#515f76" stroke-miterlimit="10" stroke-width="2.4"/><polyline points="99.93 69.59 99.8 69.59 10.47 69.59 10.33 69.59" fill="none" stroke="#515f76" stroke-miterlimit="10" stroke-width="2.4"/><line x1="55.13" y1="78.79" x2="55.13" y2="9.99" fill="none" stroke="#515f76" stroke-miterlimit="10" stroke-width="2.4"/><path d="M28.71,94.21l-0.38-.26A46.78,46.78,0,0,1,54.59,8.8h1.09A46.81,46.81,0,0,1,99.8,69.59a45.74,45.74,0,0,1-3.8,8.8c-0.06.14-.14,0.26-0.22,0.4" fill="none" stroke="#515f76" stroke-miterlimit="10" stroke-width="2.4"/><path d="M76.85,78.65L77,78.39a53.52,53.52,0,0,0,3.15-8.8A54.8,54.8,0,0,0,55.68,8.8" fill="none" stroke="#515f76" stroke-miterlimit="10" stroke-width="2.4"/><path d="M33.18,78.16a55,55,0,0,1-3-36.57A54.89,54.89,0,0,1,53.49,9.5" fill="none" stroke="#515f76" stroke-miterlimit="10" stroke-width="2.4"/><path d="M40.83,94.39c0.8,0-.34,0-0.2,0,2.55,0,4.79-2.49,5.68-3.63a1.59,1.59,0,0,1,1.19-.61c7.32-.3,61.62-1.76,61.62-1.76a25.39,25.39,0,0,1-.67-3.2h-64a0.34,0.34,0,0,1,0,.21,5.86,5.86,0,0,1-5,5.71c-2.23.35-.51,0.08-1.82,0.05v24c0.8,0,3.2.1,3.2,0.33V94.39Z" fill="#a4e0b3"/><path d="M37.09,92a6.16,6.16,0,0,0,5.63-5.63,3.78,3.78,0,0,0,0-.58,0.16,0.16,0,0,1,.16-0.17h64.5a0.16,0.16,0,0,1,.16.17,3.77,3.77,0,0,0,0,.58A6.16,6.16,0,0,0,113.18,92a3.77,3.77,0,0,0,.58,0,0.16,0.16,0,0,1,.17.16V115a0.16,0.16,0,0,1-.17.16,3.77,3.77,0,0,0-.57,0,6.16,6.16,0,0,0-5.63,5.63,3.77,3.77,0,0,0,0,.57,0.16,0.16,0,0,1-.16.17H42.88a0.16,0.16,0,0,1-.16-0.17,3.78,3.78,0,0,0,0-.58,6.18,6.18,0,0,0-5.63-5.63,3.78,3.78,0,0,0-.58,0,0.16,0.16,0,0,1-.17-0.16V92.14A0.16,0.16,0,0,1,36.51,92,3.78,3.78,0,0,0,37.09,92Z" fill="none" stroke="#515f76" stroke-miterlimit="10" stroke-width="2.4"/></svg>